<?xml version="1.0" standalone="no"?>
<!DOCTYPE svg PUBLIC "-//W3C//DTD SVG 20010904//EN"
 "http://www.w3.org/TR/2001/REC-SVG-20010904/DTD/svg10.dtd">
<svg version="1.0" xmlns="http://www.w3.org/2000/svg"
 width="512.000000pt" height="512.000000pt" viewBox="0 0 512.000000 512.000000"
 preserveAspectRatio="xMidYMid meet">
<metadata>
Created by potrace 1.11, written by Peter Selinger 2001-2013
</metadata>
<g transform="translate(0.000000,512.000000) scale(0.100000,-0.100000)"
fill="#000000" stroke="none">
<path d="M1890 5104 c-69 -18 -165 -63 -227 -105 -54 -36 -954 -927 -1069
-1058 -220 -249 -251 -567 -83 -847 19 -31 61 -84 94 -117 34 -34 506 -408
1050 -831 l990 -770 250 -247 c270 -266 300 -289 416 -309 87 -15 187 5 261
53 29 20 280 263 565 548 392 394 517 526 536 565 54 108 55 227 2 342 -21 46
-71 101 -274 307 l-248 250 -759 975 c-416 536 -774 993 -793 1015 -97 110
-219 188 -351 224 -91 26 -274 28 -360 5z m287 -238 c84 -22 141 -55 204 -115
50 -48 1503 -1904 1515 -1935 2 -6 -47 -62 -110 -125 l-114 -113 -799 883
c-440 486 -839 921 -887 967 -93 87 -194 160 -286 207 l-55 28 70 64 c140 129
310 179 462 139z m-591 -447 c88 -42 202 -129 300 -230 45 -46 427 -466 849
-933 l767 -849 -190 -190 -189 -189 -844 762 c-464 419 -890 807 -945 861
-144 140 -240 286 -260 393 l-7 38 189 190 189 189 38 -6 c21 -3 67 -19 103
-36z m-690 -591 c50 -99 119 -192 214 -292 52 -54 488 -455 968 -889 l873
-790 -113 -114 c-62 -62 -116 -113 -120 -113 -13 0 -1883 1459 -1935 1510
-153 149 -176 406 -53 585 28 41 128 155 136 155 2 0 16 -24 30 -52z m3569
-1630 c17 -93 35 -71 -503 -611 -273 -274 -509 -505 -524 -513 -32 -17 -85
-18 -125 -4 -15 6 -115 97 -221 203 l-192 192 582 583 583 582 197 -197 c166
-168 197 -204 203 -235z"/>
<path d="M4343 1044 c-75 -38 -90 -136 -29 -193 67 -63 170 -32 197 59 28 93
-80 179 -168 134z"/>
<path d="M3923 724 c-58 -45 -63 -122 -11 -174 60 -61 151 -45 191 33 17 33
18 44 8 77 -25 85 -121 118 -188 64z"/>
<path d="M4366 489 c-66 -18 -107 -94 -82 -153 50 -116 199 -106 230 16 18 77
-70 158 -148 137z"/>
<path d="M3955 231 c-28 -12 -71 -62 -78 -89 -9 -36 11 -89 44 -116 94 -79
236 29 184 138 -27 57 -100 89 -150 67z"/>
</g>
</svg>
